# xmcd CD database file
# Generated: Wed Oct 22 18:00:31 2003 by KSCD
# 
# Track frame offsets:
#       150
#       8988
#       19259
#       34230
#       47261
#       67339
#       86607
#       104456
#       120667
#       135239
#       142457
#
# Disc length: 2146 seconds
#
# Revision: 1
# Processed by: cddbd v1.4PL0 Copyright (c) Steve Scherf et al.
# Submitted via: Kscd 1.3.3
#
DISCID=9a08600b
DTITLE=Blue Grass - Various
DYEAR=1900
DGENRE=
TTITLE0=Ddidn't leave nobody but the baby
TTITLE1=Big Rock Candy Mountain
TTITLE2=O Death
TTITLE3=Down in the river to pray
TTITLE4=You are my sunshine
TTITLE5=Man of constant sorrow
TTITLE6=I'll fly away
TTITLE7=In the jailhouse
TTITLE8=I am weary
TTITLE9=In the highways
TTITLE10=Lonesome valley
EXTD=
EXTT0=
EXTT1=
EXTT2=
EXTT3=
EXTT4=
EXTT5=
EXTT6=
EXTT7=
EXTT8=
EXTT9=
EXTT10=
PLAYORDER=
